<?xml version="1.0" encoding="utf-8"?>
<!-- Generator: Adobe Illustrator 19.2.1, SVG Export Plug-In . SVG Version: 6.00 Build 0)  -->
<svg version="1.1" id="Logo" xmlns="http://www.w3.org/2000/svg" xmlns:xlink="http://www.w3.org/1999/xlink" x="0px" y="0px"
	 viewBox="0 0 274.4 274.4" style="enable-background:new 0 0 274.4 274.4;" xml:space="preserve">
<style type="text/css">
	.st0{fill:#FFFFFF;}
</style>
<g>
	<path class="st0" d="M137.2,0C61.4,0,0,61.4,0,137.2c0,56.2,33.8,104.4,82.1,125.7c-0.4-9.6-0.1-21.1,2.4-31.5
		c2.6-11.1,17.7-74.8,17.7-74.8s-4.4-8.8-4.4-21.7c0-20.3,11.8-35.5,26.5-35.5c12.5,0,18.5,9.4,18.5,20.6c0,12.5-8,31.3-12.1,48.7
		c-3.4,14.6,7.3,26.4,21.7,26.4c26,0,43.5-33.4,43.5-72.9c0-30.1-20.3-52.6-57.1-52.6c-41.6,0-67.5,31-67.5,65.7
		c0,12,3.5,20.4,9,26.9c2.5,3,2.9,4.2,2,7.6c-0.7,2.5-2.2,8.6-2.8,11c-0.9,3.5-3.7,4.7-6.9,3.4c-19.2-7.8-28.1-28.8-28.1-52.4
		c0-39,32.9-85.7,98.1-85.7c52.4,0,86.9,37.9,86.9,78.6c0,53.8-29.9,94-74,94c-14.8,0-28.7-8-33.5-17.1c0,0-8,31.6-9.7,37.7
		c-2.9,10.6-8.6,21.1-13.8,29.4c12.3,3.6,25.4,5.6,38.9,5.6c75.8,0,137.2-61.4,137.2-137.2C274.4,61.4,213,0,137.2,0z"/>
</g>
</svg>
